<svg xmlns:dc="http://purl.org/dc/elements/1.1/" xmlns:cc="http://creativecommons.org/ns#" xmlns:rdf="http://www.w3.org/1999/02/22-rdf-syntax-ns#" xmlns:svg="http://www.w3.org/2000/svg" xmlns="http://www.w3.org/2000/svg" xmlns:sodipodi="http://sodipodi.sourceforge.net/DTD/sodipodi-0.dtd" xmlns:inkscape="http://www.inkscape.org/namespaces/inkscape" viewBox="0 0 100 100" version="1.1" x="0px" y="0px"><g transform="translate(0,-952.36216)"><path style="color:#000000;font-style:normal;font-variant:normal;font-weight:normal;font-stretch:normal;font-size:medium;line-height:normal;font-family:sans-serif;text-indent:0;text-align:start;text-decoration:none;text-decoration-line:none;text-decoration-style:solid;text-decoration-color:#000000;letter-spacing:normal;word-spacing:normal;text-transform:none;direction:ltr;block-progression:tb;writing-mode:lr-tb;baseline-shift:baseline;text-anchor:start;white-space:normal;clip-rule:nonzero;display:inline;overflow:visible;visibility:visible;opacity:1;isolation:auto;mix-blend-mode:normal;color-interpolation:sRGB;color-interpolation-filters:linearRGB;solid-color:#000000;solid-opacity:1;fill:#000000;fill-opacity:1;fill-rule:nonzero;stroke:none;stroke-width:5;stroke-linecap:round;stroke-linejoin:round;stroke-miterlimit:4;stroke-dasharray:none;stroke-dashoffset:0;stroke-opacity:1;color-rendering:auto;image-rendering:auto;shape-rendering:auto;text-rendering:auto;enable-background:accumulate" d="m 49.999999,957.36216 c -24.830603,0 -44.9999991,20.1694 -44.9999991,45.00004 0,24.8306 20.1693961,45 44.9999991,45 24.830603,0 45,-20.1694 45,-45 0,-24.83064 -20.169397,-45.00004 -45,-45.00004 z m 0,3.75 c 22.803953,0 41.25,18.44605 41.25,41.25004 0,22.8039 -18.446047,41.25 -41.25,41.25 -22.803953,0 -41.2499991,-18.4461 -41.2499991,-41.25 0,-22.80399 18.4460461,-41.25004 41.2499991,-41.25004 z"/><path d="m 49.999573,964.86164 a 37.500259,37.499463 0 0 0 -37.5,37.49926 37.500259,37.499463 0 0 0 37.5,37.5007 37.500259,37.499463 0 0 0 37.499999,-37.5007 37.500259,37.499463 0 0 0 -37.499999,-37.49926 z m -12.080175,12.75653 6.8412,0 0,5.124 1.818375,0 0,-5.124 6.8412,0 0,5.124 1.816799,0 0,-5.124 6.8397,0 0,12.74587 -1.688325,0 0,1.6461 -0.94245,0 0.934875,22.25696 0.70065,0 0,1.6461 2.7426,0 0,9.5458 0.987675,0 0,1.6447 -29.625824,0 0,-1.6447 0.987675,0 0,-9.5458 2.7426,0 0,-1.6461 0.700725,0 0.934875,-22.25696 -0.943875,0 0,-1.6461 -1.688475,0 0,-12.74587 z" style="opacity:1;fill:#000000;fill-opacity:1;stroke:none;stroke-width:5;stroke-linecap:round;stroke-linejoin:round;stroke-miterlimit:4;stroke-dasharray:none;stroke-dashoffset:0;stroke-opacity:1"/></g></svg>